{"title":"Metal.Hurlant.S01E03.Three.on.a.Match.720p.AC3.2.0.x264.mkv","uid":7951025,"size":757834664,"categoryP":"video","categoryS":"hd___tv_shows","magnet":"?xt=urn:btih:dc8fd9e07af769f8238e68e16bda1c7aa47bb79d&amp;dn=Metal.Hurlant.S01E03.Three.on.a.Match.720p.AC3.2.0.x264.mkv&amp;tr=udp%3A%2F%2Ftracker.openbittorrent.com%3A80&amp;tr=udp%3A%2F%2Fopen.demonii.com%3A1337&amp;tr=udp%3A%2F%2Ftracker.coppersurfer.tk%3A6969&amp;tr=udp%3A%2F%2Fexodus.desync.com%3A6969","seeders":1,"leechers":0,"uploader":"helder1965","files":-1,"time":1356271971,"description":"General\nMetal.Hurlant.S01E03.Three.on.a.Match.720p.AC3.2.0.x264.mkv\nFormat                                   : Matroska\nFormat version                           : Version 2\nFile size                                : 723 MiB\nDuration                                 : 23mn 20s\nOverall bit rate                         : 4 330 Kbps\n\nVideo\nID                                       : 1\nFormat                                   : AVC\nFormat/Info                              : Advanced Video Codec\nFormat profile                           : &lt;a class=&quot;__cf_email__&quot; href=&quot;/cdn-cgi/l/email-protection&quot; data-cfemail=&quot;cb83a2aca38b87ffe5fa&quot;&gt;[email&amp;#160;protected]&lt;/a&gt;&lt;script cf-hash='f9e31' type=&quot;text/javascript&quot;&gt;\n/* &lt;![CDATA[ */!function(){try{var t=&quot;currentScript&quot;in document?document.currentScript:function(){for(var t=document.getElementsByTagName(&quot;script&quot;),e=t.length;e--;)if(t[e].getAttribute(&quot;cf-hash&quot;))return t[e]}();if(t&amp;&amp;t.previousSibling){var e,r,n,i,c=t.previousSibling,a=c.getAttribute(&quot;data-cfemail&quot;);if(a){for(e=&quot;&quot;,r=parseInt(a.substr(0,2),16),n=2;a.length-n;n+=2)i=parseInt(a.substr(n,2),16)^r,e+=String.fromCharCode(i);e=document.createTextNode(e),c.parentNode.replaceChild(e,c)}}}catch(u){}}();/* ]]&gt; */&lt;/script&gt;\nFormat settings, CABAC                   : Yes\nFormat settings, ReFrames                : 9 frames\nCodec ID                                 : V_MPEG4/ISO/AVC\nDuration                                 : 23mn 20s\nBit rate                                 : 3 796 Kbps\nWidth                                    : 1 280 pixels\nHeight                                   : 720 pixels\nDisplay aspect ratio                     : 16:9\nFrame rate mode                          : Constant\nFrame rate                               : 25.000 fps\nColor space                              : YUV\nChroma subsampling                       : 4:2:0\nBit depth                                : 8 bits\nScan type                                : Progressive\nBits/(Pixel*Frame)                       : 0.165\nStream size                              : 634 MiB (88%)\n\nAudio\nID                                       : 2\nFormat                                   : AC-3\nFormat/Info                              : Audio Coding 3\nMode extension                           : CM (complete main)\nFormat settings, Endianness              : Big\nCodec ID                                 : A_AC3\nDuration                                 : 23mn 20s\nBit rate mode                            : Constant\nBit rate                                 : 448 Kbps\nChannel(s)                               : 2 channels\nChannel positions                        : Front: L R\nSampling rate                            : 48.0 KHz\nBit depth                                : 16 bits\nCompression mode                         : Lossy\nStream size                              : 74.8 MiB (10%)\n\nHail, Master Tozz!\nToday is day of new episode of Metal Hurlant here!\n\nEnjoy and seed it, buddies!\n@helder1965","torrent":{"xt":"urn:btih:dc8fd9e07af769f8238e68e16bda1c7aa47bb79d","amp;dn":"Metal.Hurlant.S01E03.Three.on.a.Match.720p.AC3.2.0.x264.mkv","amp;tr":["udp%3A%2F%2Ftracker.openbittorrent.com%3A80","udp%3A%2F%2Fopen.demonii.com%3A1337","udp%3A%2F%2Ftracker.coppersurfer.tk%3A6969","udp%3A%2F%2Fexodus.desync.com%3A6969"],"infoHash":"dc8fd9e07af769f8238e68e16bda1c7aa47bb79d","infoHashBuffer":{"type":"Buffer","data":[220,143,217,224,122,247,105,248,35,142,104,225,107,218,28,122,164,123,183,157]},"announce":[],"urlList":[]}}